<?xml version="1.0" encoding="UTF-8" standalone="no"?><!DOCTYPE svg PUBLIC "-//W3C//DTD SVG 1.1//EN" "http://www.w3.org/Graphics/SVG/1.1/DTD/svg11.dtd"><svg width="100%" height="100%" viewBox="0 0 62 36" version="1.1" xmlns="http://www.w3.org/2000/svg" xmlns:xlink="http://www.w3.org/1999/xlink" xml:space="preserve" style="fill-rule:evenodd;clip-rule:evenodd;stroke-linejoin:round;stroke-miterlimit:1.41421;"><g transform="matrix(0.5,0,0,0.5,-10.7114,-12.6716)"><path d="M37.282,56.316l1.805,0l0,5.933c1.167,0.092 2.219,0.324 3.158,0.698c0.939,0.373 1.928,0.961 2.967,1.763l5.086,-4.976l1.23,1.23l-5.031,5.031c1.604,2.115 2.443,4.211 2.516,6.29l5.906,0l0,1.668l-5.906,0c-0.237,2.187 -1.067,4.201 -2.489,6.042l5.004,5.168l-1.312,1.176l-5.004,-4.976c-1.112,0.82 -2.106,1.403 -2.981,1.75c-0.875,0.346 -1.923,0.592 -3.144,0.738l0,5.934l-1.805,0l0,-5.934c-2.297,-0.328 -4.311,-1.139 -6.043,-2.434l-5.168,4.895l-1.203,-1.203l5.004,-5.059c-1.44,-1.823 -2.288,-3.883 -2.543,-6.18l-5.906,0l0,-1.667l5.906,0c0.219,-2.297 1.057,-4.339 2.516,-6.125l-4.977,-5.032l1.121,-1.34l5.168,4.977c2.097,-1.422 4.138,-2.233 6.125,-2.434l0,-5.933Zm0.848,7.629c-2.516,0 -4.658,0.893 -6.426,2.679c-1.768,1.787 -2.652,3.929 -2.652,6.426c0,2.516 0.884,4.658 2.652,6.426c1.768,1.768 3.91,2.652 6.426,2.652c2.515,0 4.662,-0.884 6.439,-2.652c1.778,-1.768 2.666,-3.91 2.666,-6.426c0,-2.497 -0.888,-4.639 -2.666,-6.426c-1.777,-1.786 -3.924,-2.679 -6.439,-2.679Z" style="fill:#4c4c4c;fill-rule:nonzero;"/><path d="M62.536,57.785c-0.029,1.575 0.129,3.451 0.473,5.628l34.804,0c0.23,-1.403 0.373,-3.28 0.43,-5.628c0,-0.602 -0.301,-0.903 -0.902,-0.903l-33.86,0c-0.544,0.115 -0.859,0.416 -0.945,0.903Zm2.02,11.644c0.114,0.688 0.329,1.275 0.644,1.762l30.551,0c0.286,-0.602 0.516,-1.189 0.687,-1.762l-31.882,0Zm34.074,-8.035c-0.172,2.922 -0.845,6.187 -2.02,9.797c1.748,-0.029 3.108,-1.074 4.082,-3.137c0.631,-1.604 0.917,-3.595 0.86,-5.973c0,-0.458 -0.33,-0.687 -0.989,-0.687l-1.933,0Zm0.215,-3.481c-0.029,0.774 -0.058,1.59 -0.086,2.45l1.633,0c1.174,0 1.761,0.63 1.761,1.89c0,3.495 -0.687,6.274 -2.062,8.336c-0.888,1.06 -2.149,1.604 -3.781,1.633c-0.631,1.633 -1.461,3.423 -2.493,5.371l0.215,0c1.175,0 2.149,-0.773 2.922,-2.32c0.372,-0.373 1.647,-0.974 3.824,-1.805c1.089,-1.174 1.934,-3.28 2.535,-6.316c0.459,-2.034 0.688,-4.197 0.688,-6.489c0,-1.833 -1.203,-2.75 -3.609,-2.75l-1.547,0Zm-20.196,-32.57l0.258,0c0,1.49 -0.494,3.151 -1.482,4.985c-0.989,1.833 -1.497,3.924 -1.526,6.273c0,3.036 0.688,5.271 2.063,6.703c1.375,1.432 2.105,4.526 2.191,9.281l-0.258,0c-0.372,-3.924 -1.661,-7.247 -3.867,-9.968c-0.659,-1.204 -1.088,-2.879 -1.289,-5.028c-0.057,-2.922 0.487,-5.206 1.633,-6.853c1.146,-1.647 1.905,-3.445 2.277,-5.393Zm-9.41,55c7.104,0.63 14.395,0.659 21.871,0.086c0.688,-0.43 1.963,-2.678 3.825,-6.746l-29.09,0c0.744,2.091 1.876,4.311 3.394,6.66Zm23.031,0c5.099,-0.659 8.68,-1.117 10.743,-1.375c0.372,0 0.616,0.129 0.73,0.387l0,0.43c0,0.429 -3.609,1.46 -10.828,3.093l-3.824,1.418l0.043,0.43c0,0.401 -0.158,0.702 -0.473,0.902l-15.898,0c-0.344,-0.172 -0.516,-0.472 -0.516,-0.902l0,-0.258l0.129,-0.086l0,-0.086c-8.279,-2.263 -12.934,-3.638 -13.965,-4.125l-0.086,-0.515l0,-0.172c0.086,-0.287 0.315,-0.43 0.688,-0.43c1.69,0.229 4.698,0.616 9.023,1.16c-4.039,-6.817 -6.058,-14.294 -6.058,-22.429c0,-1.29 0.544,-1.934 1.632,-1.934l34.032,0c0.658,0.057 0.988,0.401 0.988,1.031l1.633,0c2.893,0 4.34,1.332 4.34,3.996c0,4.154 -0.874,8.293 -2.622,12.418c-0.687,1.089 -2.162,1.934 -4.425,2.535c-1.06,1.92 -2.263,2.879 -3.61,2.879l-0.215,0l-0.515,-0.172l-0.946,1.805Zm-28.703,-14.652c0.115,0.716 0.272,1.317 0.473,1.804l32.957,0c0.229,-0.515 0.387,-1.117 0.473,-1.804l-33.903,0Zm23.032,-20.153c-0.144,1.347 -0.401,2.392 -0.774,3.137c-1.26,1.719 -2.005,3.796 -2.234,6.231l-0.172,0c0.057,-2.951 0.487,-4.884 1.289,-5.801c0.802,-0.917 1.203,-2.306 1.203,-4.168c0,-1.518 -0.286,-2.843 -0.859,-3.975c-0.573,-1.131 -0.86,-2.17 -0.86,-3.115l0.172,0c0.201,1.232 0.63,2.356 1.289,3.373c0.659,1.017 0.974,2.456 0.946,4.318Z" style="fill:#333;fill-rule:nonzero;"/><path d="M112.657,48.413c2.406,-0.783 4.931,-1.175 7.574,-1.175c4.394,0 8.495,1.103 12.305,3.308c3.81,2.206 6.818,5.214 9.024,9.024c2.205,3.81 3.308,7.911 3.308,12.304c0,4.394 -1.103,8.5 -3.308,12.319c-2.206,3.819 -5.219,6.827 -9.038,9.023c-3.819,2.197 -7.916,3.295 -12.291,3.295c-2.643,0 -5.168,-0.392 -7.574,-1.176c5.651,-1.385 10.19,-4.274 13.617,-8.668c3.427,-4.393 5.141,-9.324 5.141,-14.793c0,-5.487 -1.714,-10.427 -5.141,-14.82c-3.427,-4.393 -7.966,-7.273 -13.617,-8.641Zm6.317,46.321c0.218,0.073 0.638,0.109 1.257,0.109c6.381,0 11.799,-2.228 16.256,-6.685c4.457,-4.457 6.686,-9.885 6.686,-16.284c0,-4.156 -1.016,-8.011 -3.049,-11.566c-2.033,-3.555 -4.822,-6.344 -8.367,-8.367c-3.546,-2.024 -7.388,-3.035 -11.526,-3.035c-0.619,0 -1.039,0.036 -1.257,0.109c4.612,2.552 8.121,5.811 10.527,9.775c2.406,3.965 3.609,8.327 3.609,13.084c0,4.74 -1.203,9.097 -3.609,13.071c-2.406,3.974 -5.915,7.237 -10.527,9.789Z" style="fill:#4c4c4c;fill-rule:nonzero;"/></g></svg>